<mxfile host="app.diagrams.net" modified="2023-03-27T20:27:47.378Z" agent="Mozilla/5.0 (X11; Ubuntu; Linux x86_64; rv:109.0) Gecko/20100101 Firefox/111.0" etag="kIyCeQZBh46EhGbgpnv9" version="21.1.1" type="github">
  <diagram name="Page-1" id="6yCRNugzBqJC-43P_idL">
    <mxGraphModel dx="1760" dy="722" grid="1" gridSize="10" guides="1" tooltips="1" connect="1" arrows="1" fold="1" page="0" pageScale="1" pageWidth="827" pageHeight="1169" math="0" shadow="0">
      <root>
        <mxCell id="0" />
        <mxCell id="1" parent="0" />
        <mxCell id="xvZKiuyhqh_uOdNm6jJn-1" value="" style="endArrow=none;html=1;rounded=0;dashed=1;dashPattern=8 8;strokeColor=#999999;fontFamily=Courier New;" edge="1" parent="1">
          <mxGeometry width="50" height="50" relative="1" as="geometry">
            <mxPoint y="480" as="sourcePoint" />
            <mxPoint y="120" as="targetPoint" />
          </mxGeometry>
        </mxCell>
        <mxCell id="xvZKiuyhqh_uOdNm6jJn-2" value="" style="endArrow=none;html=1;rounded=0;dashed=1;dashPattern=8 8;strokeColor=#999999;fontFamily=Courier New;" edge="1" parent="1">
          <mxGeometry width="50" height="50" relative="1" as="geometry">
            <mxPoint x="120" y="480" as="sourcePoint" />
            <mxPoint x="120" y="120" as="targetPoint" />
          </mxGeometry>
        </mxCell>
        <mxCell id="xvZKiuyhqh_uOdNm6jJn-3" value="" style="endArrow=none;html=1;rounded=0;dashed=1;dashPattern=8 8;strokeColor=#999999;fontFamily=Courier New;" edge="1" parent="1">
          <mxGeometry width="50" height="50" relative="1" as="geometry">
            <mxPoint x="240" y="480" as="sourcePoint" />
            <mxPoint x="240" y="120" as="targetPoint" />
          </mxGeometry>
        </mxCell>
        <mxCell id="xvZKiuyhqh_uOdNm6jJn-4" value="" style="endArrow=none;html=1;rounded=0;dashed=1;dashPattern=8 8;strokeColor=#999999;fontFamily=Courier New;" edge="1" parent="1">
          <mxGeometry width="50" height="50" relative="1" as="geometry">
            <mxPoint x="360" y="480" as="sourcePoint" />
            <mxPoint x="360" y="120" as="targetPoint" />
          </mxGeometry>
        </mxCell>
        <mxCell id="xvZKiuyhqh_uOdNm6jJn-5" value="" style="endArrow=none;html=1;rounded=0;dashed=1;dashPattern=8 8;strokeColor=#999999;fontFamily=Courier New;" edge="1" parent="1">
          <mxGeometry width="50" height="50" relative="1" as="geometry">
            <mxPoint x="480" y="240" as="sourcePoint" />
            <mxPoint x="-120" y="240" as="targetPoint" />
          </mxGeometry>
        </mxCell>
        <mxCell id="xvZKiuyhqh_uOdNm6jJn-6" value="" style="endArrow=none;html=1;rounded=0;dashed=1;dashPattern=8 8;strokeColor=#999999;fontFamily=Courier New;" edge="1" parent="1">
          <mxGeometry width="50" height="50" relative="1" as="geometry">
            <mxPoint x="480" y="360" as="sourcePoint" />
            <mxPoint x="-120" y="360" as="targetPoint" />
          </mxGeometry>
        </mxCell>
        <mxCell id="xvZKiuyhqh_uOdNm6jJn-7" value="" style="shape=waypoint;sketch=0;fillStyle=solid;size=6;pointerEvents=1;points=[];fillColor=#f8cecc;resizable=0;rotatable=0;perimeter=centerPerimeter;snapToPoint=1;fontSize=30;strokeWidth=5;strokeColor=#b85450;fontFamily=Courier New;" vertex="1" parent="1">
          <mxGeometry x="-50" y="170" width="20" height="20" as="geometry" />
        </mxCell>
        <mxCell id="xvZKiuyhqh_uOdNm6jJn-8" value="" style="endArrow=none;html=1;rounded=0;fillColor=#f8cecc;strokeColor=#b85450;strokeWidth=2;fontFamily=Courier New;" edge="1" parent="1">
          <mxGeometry width="50" height="50" relative="1" as="geometry">
            <mxPoint x="320" y="420" as="sourcePoint" />
            <mxPoint x="-40.5" y="180" as="targetPoint" />
          </mxGeometry>
        </mxCell>
        <mxCell id="xvZKiuyhqh_uOdNm6jJn-9" value="" style="shape=waypoint;sketch=0;fillStyle=solid;size=6;pointerEvents=1;points=[];fillColor=#f8cecc;resizable=0;rotatable=0;perimeter=centerPerimeter;snapToPoint=1;fontSize=30;strokeWidth=3;strokeColor=#b85450;fontFamily=Courier New;" vertex="1" parent="1">
          <mxGeometry x="40" y="230" width="20" height="20" as="geometry" />
        </mxCell>
        <mxCell id="xvZKiuyhqh_uOdNm6jJn-10" value="" style="shape=waypoint;sketch=0;fillStyle=solid;size=6;pointerEvents=1;points=[];fillColor=#f8cecc;resizable=0;rotatable=0;perimeter=centerPerimeter;snapToPoint=1;fontSize=30;strokeWidth=3;strokeColor=#b85450;fontFamily=Courier New;" vertex="1" parent="1">
          <mxGeometry x="220" y="350" width="20" height="20" as="geometry" />
        </mxCell>
        <mxCell id="xvZKiuyhqh_uOdNm6jJn-12" value="" style="endArrow=classic;startArrow=classic;html=1;rounded=0;fillColor=#f8cecc;strokeColor=#b85450;strokeWidth=2;fontFamily=Courier New;" edge="1" parent="1">
          <mxGeometry width="50" height="50" relative="1" as="geometry">
            <mxPoint x="50" y="360" as="sourcePoint" />
            <mxPoint x="50" y="240" as="targetPoint" />
          </mxGeometry>
        </mxCell>
        <mxCell id="xvZKiuyhqh_uOdNm6jJn-13" value="" style="endArrow=classic;startArrow=classic;html=1;rounded=0;fillColor=#f8cecc;strokeColor=#b85450;strokeWidth=2;exitX=0.1;exitY=1.1;exitDx=0;exitDy=0;exitPerimeter=0;fontFamily=Courier New;" edge="1" parent="1" source="xvZKiuyhqh_uOdNm6jJn-10">
          <mxGeometry width="50" height="50" relative="1" as="geometry">
            <mxPoint x="49.5" y="480" as="sourcePoint" />
            <mxPoint x="49.5" y="360" as="targetPoint" />
          </mxGeometry>
        </mxCell>
        <mxCell id="xvZKiuyhqh_uOdNm6jJn-14" value="dy_local = 1" style="text;strokeColor=none;fillColor=none;html=1;fontSize=12;fontStyle=1;verticalAlign=top;align=left;fontFamily=Courier New;" vertex="1" parent="1">
          <mxGeometry x="-30" y="290" width="100" height="40" as="geometry" />
        </mxCell>
        <mxCell id="xvZKiuyhqh_uOdNm6jJn-15" value="&lt;div&gt;dx_local = &lt;br&gt;&lt;/div&gt;" style="text;strokeColor=none;fillColor=none;html=1;fontSize=12;fontStyle=1;verticalAlign=top;align=left;fontFamily=Courier New;" vertex="1" parent="1">
          <mxGeometry x="70" y="370" width="100" height="40" as="geometry" />
        </mxCell>
        <mxCell id="xvZKiuyhqh_uOdNm6jJn-24" value="" style="endArrow=none;html=1;rounded=0;fillColor=#f8cecc;strokeColor=#b85450;strokeWidth=2;fontFamily=Courier New;" edge="1" parent="1">
          <mxGeometry width="50" height="50" relative="1" as="geometry">
            <mxPoint x="930" y="340" as="sourcePoint" />
            <mxPoint x="569.5" y="100" as="targetPoint" />
          </mxGeometry>
        </mxCell>
        <mxCell id="xvZKiuyhqh_uOdNm6jJn-25" value="" style="shape=waypoint;sketch=0;fillStyle=solid;size=6;pointerEvents=1;points=[];fillColor=#f8cecc;resizable=0;rotatable=0;perimeter=centerPerimeter;snapToPoint=1;fontSize=30;strokeWidth=3;strokeColor=#b85450;fontFamily=Courier New;" vertex="1" parent="1">
          <mxGeometry x="650" y="150" width="20" height="20" as="geometry" />
        </mxCell>
        <mxCell id="xvZKiuyhqh_uOdNm6jJn-26" value="" style="shape=waypoint;sketch=0;fillStyle=solid;size=6;pointerEvents=1;points=[];fillColor=#f8cecc;resizable=0;rotatable=0;perimeter=centerPerimeter;snapToPoint=1;fontSize=30;strokeWidth=3;strokeColor=#b85450;fontFamily=Courier New;" vertex="1" parent="1">
          <mxGeometry x="830" y="270" width="20" height="20" as="geometry" />
        </mxCell>
        <mxCell id="xvZKiuyhqh_uOdNm6jJn-27" value="" style="endArrow=classic;startArrow=classic;html=1;rounded=0;fillColor=#f8cecc;strokeColor=#b85450;strokeWidth=2;fontFamily=Courier New;" edge="1" parent="1">
          <mxGeometry width="50" height="50" relative="1" as="geometry">
            <mxPoint x="660" y="280" as="sourcePoint" />
            <mxPoint x="660" y="160" as="targetPoint" />
          </mxGeometry>
        </mxCell>
        <mxCell id="xvZKiuyhqh_uOdNm6jJn-28" value="" style="endArrow=classic;startArrow=classic;html=1;rounded=0;fillColor=#f8cecc;strokeColor=#b85450;strokeWidth=2;exitX=0.1;exitY=1.1;exitDx=0;exitDy=0;exitPerimeter=0;fontFamily=Courier New;" edge="1" parent="1" source="xvZKiuyhqh_uOdNm6jJn-26">
          <mxGeometry width="50" height="50" relative="1" as="geometry">
            <mxPoint x="659.5" y="400" as="sourcePoint" />
            <mxPoint x="659.5" y="280" as="targetPoint" />
          </mxGeometry>
        </mxCell>
        <mxCell id="xvZKiuyhqh_uOdNm6jJn-29" value="dy = ye - yp" style="text;strokeColor=none;fillColor=none;html=1;fontSize=12;fontStyle=1;verticalAlign=top;align=left;fontFamily=Courier New;" vertex="1" parent="1">
          <mxGeometry x="570" y="200" width="100" height="40" as="geometry" />
        </mxCell>
        <mxCell id="xvZKiuyhqh_uOdNm6jJn-30" value="dx = xe - xp" style="text;strokeColor=none;fillColor=none;html=1;fontSize=12;fontStyle=1;verticalAlign=top;align=left;fontFamily=Courier New;" vertex="1" parent="1">
          <mxGeometry x="700" y="290" width="100" height="40" as="geometry" />
        </mxCell>
        <mxCell id="xvZKiuyhqh_uOdNm6jJn-31" value="Player (xp, yp)" style="text;strokeColor=none;fillColor=none;html=1;fontSize=12;fontStyle=1;verticalAlign=top;align=left;fontFamily=Courier New;" vertex="1" parent="1">
          <mxGeometry x="650" y="120" width="100" height="40" as="geometry" />
        </mxCell>
        <mxCell id="xvZKiuyhqh_uOdNm6jJn-32" value="Enemy (xe, ye)" style="text;strokeColor=none;fillColor=none;html=1;fontSize=12;fontStyle=1;verticalAlign=top;align=left;fontFamily=Courier New;" vertex="1" parent="1">
          <mxGeometry x="850" y="250" width="100" height="40" as="geometry" />
        </mxCell>
        <mxCell id="xvZKiuyhqh_uOdNm6jJn-34" value="" style="endArrow=classic;startArrow=classic;html=1;rounded=0;fillColor=#f8cecc;strokeColor=#b85450;strokeWidth=2;fontFamily=Courier New;" edge="1" parent="1">
          <mxGeometry width="50" height="50" relative="1" as="geometry">
            <mxPoint x="850" y="270" as="sourcePoint" />
            <mxPoint x="669.5" y="150" as="targetPoint" />
          </mxGeometry>
        </mxCell>
        <mxCell id="xvZKiuyhqh_uOdNm6jJn-35" value="&lt;div&gt;c = sqrt( dx^2 + dy^2 )&lt;/div&gt;&lt;div&gt;sin_alpha = dy / c&lt;/div&gt;&lt;div&gt;cos_alpha = dx / c&lt;/div&gt;&lt;div&gt;tg_alpha = dy / dx&lt;/div&gt;&lt;div&gt;ctg_alpha = dx / dy&lt;br&gt;&lt;/div&gt;" style="text;strokeColor=none;fillColor=none;html=1;fontSize=12;fontStyle=1;verticalAlign=top;align=left;fontFamily=Courier New;" vertex="1" parent="1">
          <mxGeometry x="800" y="140" width="210" height="90" as="geometry" />
        </mxCell>
        <mxCell id="xvZKiuyhqh_uOdNm6jJn-37" value="" style="endArrow=classic;startArrow=classic;html=1;rounded=0;fillColor=#f8cecc;strokeColor=#b85450;strokeWidth=2;fontFamily=Courier New;" edge="1" parent="1">
          <mxGeometry width="50" height="50" relative="1" as="geometry">
            <mxPoint x="240" y="350" as="sourcePoint" />
            <mxPoint x="59.5" y="230" as="targetPoint" />
          </mxGeometry>
        </mxCell>
        <mxCell id="xvZKiuyhqh_uOdNm6jJn-38" value="&lt;div&gt;sin_alpha = dy_local / c_local&lt;/div&gt;&lt;div&gt;c_local = dy_local / sin_alpha&lt;br&gt;&lt;/div&gt;&lt;div&gt;&lt;br&gt;&lt;/div&gt;&lt;div&gt;c_local = sqrt( dx_local^2 + dy_local^2 ) =&lt;/div&gt;&lt;div&gt;&lt;span style=&quot;white-space: pre;&quot;&gt;	&lt;/span&gt;= sqrt( dx_local^2 + 1 )&lt;br&gt;&lt;/div&gt;" style="text;strokeColor=none;fillColor=none;html=1;fontSize=12;fontStyle=1;verticalAlign=top;align=left;fontFamily=Courier New;" vertex="1" parent="1">
          <mxGeometry x="140" y="200" width="250" height="40" as="geometry" />
        </mxCell>
        <mxCell id="xvZKiuyhqh_uOdNm6jJn-40" value="&lt;div&gt;alpha&lt;br&gt;&lt;/div&gt;" style="text;strokeColor=none;fillColor=none;html=1;fontSize=12;fontStyle=1;verticalAlign=top;align=left;fontFamily=Courier New;" vertex="1" parent="1">
          <mxGeometry x="150" y="330" width="100" height="40" as="geometry" />
        </mxCell>
        <mxCell id="xvZKiuyhqh_uOdNm6jJn-41" value="" style="shape=partialRectangle;whiteSpace=wrap;html=1;bottom=0;right=0;fillColor=none;" vertex="1" parent="1">
          <mxGeometry x="140" y="330" width="40" height="30" as="geometry" />
        </mxCell>
        <mxCell id="xvZKiuyhqh_uOdNm6jJn-44" value="&lt;div&gt;alpha&lt;br&gt;&lt;/div&gt;" style="text;strokeColor=none;fillColor=none;html=1;fontSize=12;fontStyle=1;verticalAlign=top;align=left;fontFamily=Courier New;" vertex="1" parent="1">
          <mxGeometry x="770" y="250" width="100" height="40" as="geometry" />
        </mxCell>
        <mxCell id="xvZKiuyhqh_uOdNm6jJn-45" value="" style="shape=partialRectangle;whiteSpace=wrap;html=1;bottom=0;right=0;fillColor=none;" vertex="1" parent="1">
          <mxGeometry x="760" y="250" width="40" height="30" as="geometry" />
        </mxCell>
      </root>
    </mxGraphModel>
  </diagram>
</mxfile>
